<svg width="51" height="24" viewBox="0 0 51 24" fill="none" xmlns="http://www.w3.org/2000/svg">
<path d="M6.5929 12.973V21.0349H8.4116V0H5.68354C2.95549 0 0.682115 2.22392 0.682115 6.57914C0.682115 9.72977 1.66721 11.3977 3.18293 12.3244L0 20.9422H2.12189L5.07738 12.8804H6.5929V12.973ZM6.5929 11.1198H5.6078C4.01633 11.1198 2.65231 10.0079 2.65231 6.67201C2.65231 3.15088 4.09208 1.94605 5.6078 1.94605H6.5929V11.1198ZM26.9777 19.1814H25.9927V6.20865H20.3849V7.50585C20.3849 11.3977 20.2334 16.031 19.1723 19.1814H18.4145V24H20.0817V21.0349H25.2348V23.9074H26.902C26.9777 23.9074 26.9777 19.1814 26.9777 19.1814ZM35.0862 20.0155L34.6315 18.255C34.1768 18.6257 33.3432 19.2743 32.2824 19.2743C30.7668 19.2743 30.009 17.5137 30.009 14.1779H35.0862V12.8807C35.0862 7.87684 33.7979 6.0234 31.7519 6.0234C29.1754 6.0234 28.1145 9.4519 28.1145 14.2705C28.1145 18.8109 29.6301 21.2204 32.1309 21.2204C33.3432 21.2201 34.3283 20.7567 35.0862 20.0155ZM15.4592 6.20865V12.5099H12.6554V6.20865H10.8365V21.0349H12.7309V14.3631H15.5347V21.0349H17.3534V6.20865H15.4592ZM42.0578 21.0349H44.1039L40.6938 13.1583L43.725 6.2084H41.8305L38.951 13.0656V6.20865H37.0566V21.0349H38.951V13.6216L42.0578 21.0349ZM48.4992 21.2201C49.636 21.2201 50.3936 20.7567 51 20.1081L50.5453 18.4402C50.0907 18.9036 49.4085 19.3669 48.4992 19.3669C46.9837 19.3669 46.3016 17.2356 46.3016 13.529C46.3016 9.82239 47.2867 7.96921 48.5749 7.96921C49.3328 7.96921 50.0905 8.43257 50.5451 8.98855L50.7726 6.85725C50.2421 6.48651 49.6358 6.11603 48.5749 6.11603C45.7711 6.11603 44.2554 9.08117 44.2554 13.7145C44.3312 18.7183 45.9226 21.2201 48.4992 21.2201ZM24.1737 19.1814H20.991C21.9761 16.0308 22.1278 11.4903 22.1278 8.3397V8.06158H24.2497V19.1812L24.1737 19.1814ZM31.7517 7.87659C32.8126 7.87659 33.1915 9.72977 33.1915 12.2318H30.0845C30.1605 9.63715 30.6151 7.87659 31.7517 7.87659Z" fill="white"/>
</svg>
